<svg xmlns="http://www.w3.org/2000/svg" xmlns:xlink="http://www.w3.org/1999/xlink" width="500" zoomAndPan="magnify" viewBox="0 0 375 374.999991" height="500" preserveAspectRatio="xMidYMid meet" version="1.0"><defs><g/><clipPath id="184d4a064d"><path d="M 120 194.046875 L 127 194.046875 L 127 230 L 120 230 Z M 120 194.046875 " clip-rule="nonzero"/></clipPath><clipPath id="ac03fe9989"><path d="M 116 194.046875 L 131 194.046875 L 131 234 L 116 234 Z M 116 194.046875 " clip-rule="nonzero"/></clipPath><clipPath id="4b3d0024cf"><path d="M 106 233 L 136.222656 233 L 136.222656 235 L 106 235 Z M 106 233 " clip-rule="nonzero"/></clipPath><clipPath id="07f3a49648"><path d="M 106 233 L 136.222656 233 L 136.222656 260.796875 L 106 260.796875 Z M 106 233 " clip-rule="nonzero"/></clipPath><clipPath id="209d43c5f4"><path d="M 95 258 L 98 258 L 98 260.796875 L 95 260.796875 Z M 95 258 " clip-rule="nonzero"/></clipPath><clipPath id="5611b9924e"><path d="M 96 258 L 100 258 L 100 260.796875 L 96 260.796875 Z M 96 258 " clip-rule="nonzero"/></clipPath><clipPath id="c41aaba88a"><path d="M 85 258 L 89 258 L 89 260.796875 L 85 260.796875 Z M 85 258 " clip-rule="nonzero"/></clipPath><clipPath id="a1c5aa8089"><path d="M 84 258 L 87 258 L 87 260.796875 L 84 260.796875 Z M 84 258 " clip-rule="nonzero"/></clipPath><clipPath id="76cdc50e27"><path d="M 79.972656 241 L 113 241 L 113 260.796875 L 79.972656 260.796875 Z M 79.972656 241 " clip-rule="nonzero"/></clipPath></defs><g clip-path="url(#184d4a064d)"><path fill="#ec6c1e" d="M 121.441406 229.726562 C 121.21875 229.90625 120.292969 229.726562 120.292969 229.726562 L 120.292969 194.285156 C 120.292969 194.285156 121.238281 194.082031 121.441406 194.285156 C 127.707031 200.550781 128.335938 224.160156 121.441406 229.726562 Z M 121.441406 229.726562 " fill-opacity="1" fill-rule="nonzero"/></g><g clip-path="url(#ac03fe9989)"><path stroke-linecap="butt" transform="matrix(0.737645, 0, 0, 0.737645, 71.221349, 190.507106)" fill="none" stroke-linejoin="miter" d="M 68.08158 53.168449 C 67.779733 53.412045 66.524683 53.168449 66.524683 53.168449 L 66.524683 5.121771 C 66.524683 5.121771 67.80621 4.846402 68.08158 5.121771 C 76.575669 13.61586 77.428255 45.622266 68.08158 53.168449 Z M 68.08158 53.168449 " stroke="#000000" stroke-width="0.374" stroke-opacity="1" stroke-miterlimit="10"/></g><path fill="#ec6c1e" d="M 131.046875 233.203125 L 120.292969 233.203125 L 120.292969 232.652344 L 131.046875 232.652344 C 131.460938 232.652344 131.753906 232.535156 131.9375 232.296875 C 132.292969 231.839844 132.1875 231.011719 132.117188 230.730469 C 131.945312 230.066406 127.917969 214.417969 127.675781 213.128906 C 127.484375 212.109375 126.460938 212.265625 126.417969 212.273438 L 126.328125 211.730469 C 126.882812 211.636719 127.988281 211.789062 128.21875 213.027344 C 128.457031 214.296875 132.609375 230.429688 132.652344 230.59375 C 132.664062 230.644531 132.964844 231.875 132.375 232.636719 C 132.082031 233.011719 131.632812 233.203125 131.046875 233.203125 Z M 131.046875 233.203125 " fill-opacity="1" fill-rule="nonzero"/><path fill="#ec6c1e" d="M 115.628906 232.539062 L 115.640625 232.816406 L 109.226562 233.066406 L 109.214844 232.789062 Z M 115.628906 232.539062 " fill-opacity="1" fill-rule="nonzero"/><path fill="#ec6c1e" d="M 115.957031 232.867188 C 115.957031 232.957031 115.921875 233.03125 115.859375 233.09375 C 115.796875 233.15625 115.722656 233.1875 115.632812 233.1875 C 115.542969 233.1875 115.46875 233.15625 115.40625 233.09375 C 115.34375 233.03125 115.3125 232.957031 115.3125 232.867188 C 115.3125 232.777344 115.34375 232.703125 115.40625 232.640625 C 115.46875 232.578125 115.542969 232.546875 115.632812 232.546875 C 115.722656 232.546875 115.796875 232.578125 115.859375 232.640625 C 115.921875 232.703125 115.957031 232.777344 115.957031 232.867188 Z M 115.957031 232.867188 " fill-opacity="1" fill-rule="nonzero"/><path fill="#ec6c1e" d="M 101.101562 208.351562 C 101.101562 208.761719 101.0625 209.167969 100.980469 209.574219 C 100.902344 209.976562 100.78125 210.367188 100.625 210.746094 C 100.46875 211.128906 100.273438 211.488281 100.046875 211.828125 C 99.816406 212.171875 99.558594 212.488281 99.269531 212.777344 C 98.976562 213.070312 98.660156 213.328125 98.320312 213.558594 C 97.976562 213.785156 97.617188 213.980469 97.234375 214.136719 C 96.855469 214.292969 96.464844 214.414062 96.0625 214.492188 C 95.65625 214.574219 95.25 214.613281 94.839844 214.613281 C 94.429688 214.613281 94.019531 214.574219 93.617188 214.492188 C 93.214844 214.414062 92.824219 214.292969 92.441406 214.136719 C 92.0625 213.980469 91.703125 213.785156 91.359375 213.558594 C 91.019531 213.328125 90.703125 213.070312 90.410156 212.777344 C 90.121094 212.488281 89.859375 212.171875 89.632812 211.828125 C 89.402344 211.488281 89.210938 211.128906 89.054688 210.746094 C 88.894531 210.367188 88.777344 209.976562 88.695312 209.574219 C 88.617188 209.167969 88.578125 208.761719 88.578125 208.351562 C 88.578125 207.941406 88.617188 207.53125 88.695312 207.128906 C 88.777344 206.726562 88.894531 206.335938 89.054688 205.953125 C 89.210938 205.574219 89.402344 205.214844 89.632812 204.871094 C 89.859375 204.53125 90.121094 204.214844 90.410156 203.921875 C 90.703125 203.632812 91.019531 203.371094 91.359375 203.144531 C 91.703125 202.914062 92.0625 202.722656 92.441406 202.566406 C 92.824219 202.40625 93.214844 202.289062 93.617188 202.207031 C 94.019531 202.128906 94.429688 202.089844 94.839844 202.089844 C 95.25 202.089844 95.65625 202.128906 96.0625 202.207031 C 96.464844 202.289062 96.855469 202.40625 97.234375 202.566406 C 97.617188 202.722656 97.976562 202.914062 98.320312 203.144531 C 98.660156 203.371094 98.976562 203.632812 99.269531 203.921875 C 99.558594 204.214844 99.816406 204.53125 100.046875 204.871094 C 100.273438 205.214844 100.46875 205.574219 100.625 205.953125 C 100.78125 206.335938 100.902344 206.726562 100.980469 207.128906 C 101.0625 207.53125 101.101562 207.941406 101.101562 208.351562 Z M 101.101562 208.351562 " fill-opacity="1" fill-rule="nonzero"/><path fill="#ec6c1e" d="M 95.847656 239.296875 C 95.558594 242.027344 93.113281 244.003906 90.382812 243.714844 L 89.007812 243.570312 C 86.277344 243.28125 84.300781 240.832031 84.589844 238.101562 L 86.761719 218.460938 C 87.050781 215.730469 89.496094 213.753906 92.226562 214.042969 L 93.601562 214.1875 C 96.332031 214.476562 98.308594 216.925781 98.019531 219.65625 Z M 95.847656 239.296875 " fill-opacity="1" fill-rule="nonzero"/><path fill="#ec6c1e" d="M 99.023438 229.488281 C 98.054688 229.679688 97.050781 229.203125 96.605469 228.28125 L 92.078125 218.890625 C 91.546875 217.792969 92.007812 216.472656 93.105469 215.941406 C 94.207031 215.410156 95.527344 215.871094 96.058594 216.972656 L 99.671875 224.46875 L 110.210938 220.027344 C 111.335938 219.554688 112.632812 220.082031 113.105469 221.207031 C 113.582031 222.332031 113.050781 223.628906 111.925781 224.101562 L 99.453125 229.355469 C 99.3125 229.417969 99.167969 229.460938 99.023438 229.488281 Z M 99.023438 229.488281 " fill-opacity="1" fill-rule="nonzero"/><path fill="#ec6c1e" d="M 106.824219 240.757812 C 106.824219 242.398438 105.292969 243.726562 103.40625 243.726562 L 88.785156 243.726562 C 86.898438 243.726562 84.8125 241.292969 84.8125 239.652344 L 85.367188 240.757812 C 85.367188 239.121094 86.898438 237.789062 88.785156 237.789062 L 105.757812 237.789062 C 107.648438 237.789062 106.824219 239.121094 106.824219 240.757812 Z M 106.824219 240.757812 " fill-opacity="1" fill-rule="nonzero"/><path fill="#ec6c1e" d="M 111 255.074219 C 111.253906 256.914062 110.203125 258.578125 108.65625 258.792969 C 107.105469 259.007812 105.644531 257.6875 105.390625 255.847656 L 103.414062 241.539062 C 103.160156 239.699219 104.210938 238.03125 105.757812 237.816406 C 107.308594 237.605469 108.769531 238.921875 109.023438 240.765625 Z M 111 255.074219 " fill-opacity="1" fill-rule="nonzero"/><path fill="#ec6c1e" d="M 83.144531 245.785156 C 82.476562 245.785156 81.582031 245.648438 80.929688 245.023438 C 80.484375 244.605469 80.007812 243.804688 80.230469 242.378906 C 81.25 235.851562 80.351562 215.683594 80.339844 215.480469 C 80.320312 215.023438 80.671875 214.636719 81.132812 214.613281 C 81.589844 214.59375 81.976562 214.949219 81.996094 215.40625 C 82.035156 216.242188 82.910156 235.945312 81.867188 242.636719 C 81.777344 243.210938 81.84375 243.609375 82.070312 243.824219 C 82.449219 244.1875 83.347656 244.152344 83.699219 244.078125 C 83.753906 244.066406 83.804688 244.0625 83.859375 244.0625 L 100.339844 243.867188 C 100.796875 243.859375 101.171875 244.226562 101.175781 244.683594 C 101.183594 245.140625 100.816406 245.515625 100.359375 245.523438 L 83.949219 245.71875 C 83.800781 245.742188 83.507812 245.785156 83.144531 245.785156 Z M 83.144531 245.785156 " fill-opacity="1" fill-rule="nonzero"/><g clip-path="url(#4b3d0024cf)"><path fill="#ec6c1e" d="M 106.824219 233.1875 L 136.035156 233.1875 L 136.035156 234.292969 L 106.824219 234.292969 Z M 106.824219 233.1875 " fill-opacity="1" fill-rule="nonzero"/></g><g clip-path="url(#07f3a49648)"><path fill="#ec6c1e" d="M 107.382812 260.582031 C 107.3125 260.582031 107.238281 260.570312 107.171875 260.542969 C 106.902344 260.441406 106.777344 260.164062 106.898438 259.929688 L 119.863281 234.019531 C 119.945312 233.855469 120.125 233.746094 120.332031 233.742188 C 120.539062 233.738281 120.726562 233.835938 120.820312 233.996094 L 135.976562 259.90625 C 136.109375 260.136719 136.007812 260.414062 135.746094 260.53125 C 135.484375 260.652344 135.164062 260.558594 135.03125 260.332031 L 120.386719 235.292969 L 107.871094 260.304688 C 107.785156 260.480469 107.589844 260.582031 107.382812 260.582031 Z M 107.382812 260.582031 " fill-opacity="1" fill-rule="nonzero"/></g><path fill="#ec6c1e" d="M 90.835938 245.238281 L 92.035156 245.238281 L 92.035156 257.050781 L 90.835938 257.050781 Z M 90.835938 245.238281 " fill-opacity="1" fill-rule="nonzero"/><g clip-path="url(#209d43c5f4)"><path fill="#ec6c1e" d="M 97.496094 259.347656 C 97.496094 259.511719 97.464844 259.667969 97.402344 259.820312 C 97.339844 259.972656 97.25 260.105469 97.132812 260.222656 C 97.015625 260.335938 96.882812 260.425781 96.730469 260.488281 C 96.582031 260.550781 96.421875 260.582031 96.257812 260.582031 C 96.09375 260.582031 95.9375 260.550781 95.785156 260.488281 C 95.636719 260.425781 95.5 260.335938 95.386719 260.222656 C 95.269531 260.105469 95.179688 259.972656 95.117188 259.820312 C 95.054688 259.667969 95.023438 259.511719 95.023438 259.347656 C 95.023438 259.183594 95.054688 259.027344 95.117188 258.875 C 95.179688 258.722656 95.269531 258.589844 95.386719 258.472656 C 95.5 258.359375 95.636719 258.269531 95.785156 258.207031 C 95.9375 258.144531 96.09375 258.113281 96.257812 258.113281 C 96.421875 258.113281 96.582031 258.144531 96.730469 258.207031 C 96.882812 258.269531 97.015625 258.359375 97.132812 258.472656 C 97.25 258.589844 97.339844 258.722656 97.402344 258.875 C 97.464844 259.027344 97.496094 259.183594 97.496094 259.347656 Z M 97.496094 259.347656 " fill-opacity="1" fill-rule="nonzero"/></g><g clip-path="url(#5611b9924e)"><path fill="#ec6c1e" d="M 99.34375 259.347656 C 99.34375 259.511719 99.3125 259.667969 99.25 259.820312 C 99.1875 259.972656 99.097656 260.105469 98.980469 260.222656 C 98.867188 260.339844 98.730469 260.425781 98.582031 260.488281 C 98.429688 260.554688 98.269531 260.585938 98.105469 260.585938 C 97.941406 260.585938 97.785156 260.554688 97.632812 260.488281 C 97.484375 260.425781 97.347656 260.339844 97.234375 260.222656 C 97.117188 260.105469 97.027344 259.972656 96.964844 259.820312 C 96.902344 259.667969 96.871094 259.511719 96.871094 259.347656 C 96.871094 259.183594 96.902344 259.027344 96.964844 258.875 C 97.027344 258.722656 97.117188 258.589844 97.234375 258.472656 C 97.347656 258.359375 97.484375 258.269531 97.632812 258.207031 C 97.785156 258.144531 97.941406 258.113281 98.105469 258.113281 C 98.269531 258.113281 98.429688 258.144531 98.582031 258.207031 C 98.730469 258.269531 98.867188 258.359375 98.980469 258.472656 C 99.097656 258.589844 99.1875 258.722656 99.25 258.875 C 99.3125 259.027344 99.34375 259.183594 99.34375 259.347656 Z M 99.34375 259.347656 " fill-opacity="1" fill-rule="nonzero"/></g><g clip-path="url(#c41aaba88a)"><path fill="#ec6c1e" d="M 88.289062 259.347656 C 88.289062 259.511719 88.257812 259.667969 88.195312 259.820312 C 88.132812 259.972656 88.042969 260.105469 87.929688 260.222656 C 87.8125 260.339844 87.679688 260.425781 87.527344 260.488281 C 87.375 260.554688 87.21875 260.585938 87.054688 260.585938 C 86.890625 260.585938 86.734375 260.554688 86.582031 260.488281 C 86.429688 260.425781 86.296875 260.339844 86.179688 260.222656 C 86.0625 260.105469 85.976562 259.972656 85.910156 259.820312 C 85.847656 259.667969 85.816406 259.511719 85.816406 259.347656 C 85.816406 259.183594 85.847656 259.027344 85.910156 258.875 C 85.976562 258.722656 86.0625 258.589844 86.179688 258.472656 C 86.296875 258.359375 86.429688 258.269531 86.582031 258.207031 C 86.734375 258.144531 86.890625 258.113281 87.054688 258.113281 C 87.21875 258.113281 87.375 258.144531 87.527344 258.207031 C 87.679688 258.269531 87.8125 258.359375 87.929688 258.472656 C 88.042969 258.589844 88.132812 258.722656 88.195312 258.875 C 88.257812 259.027344 88.289062 259.183594 88.289062 259.347656 Z M 88.289062 259.347656 " fill-opacity="1" fill-rule="nonzero"/></g><g clip-path="url(#a1c5aa8089)"><path fill="#ec6c1e" d="M 86.601562 259.347656 C 86.601562 259.511719 86.570312 259.667969 86.507812 259.820312 C 86.445312 259.972656 86.355469 260.105469 86.242188 260.222656 C 86.125 260.339844 85.992188 260.425781 85.839844 260.488281 C 85.6875 260.554688 85.53125 260.585938 85.367188 260.585938 C 85.203125 260.585938 85.046875 260.554688 84.894531 260.488281 C 84.742188 260.425781 84.609375 260.339844 84.492188 260.222656 C 84.378906 260.105469 84.289062 259.972656 84.226562 259.820312 C 84.164062 259.667969 84.132812 259.511719 84.132812 259.347656 C 84.132812 259.183594 84.164062 259.027344 84.226562 258.875 C 84.289062 258.722656 84.378906 258.589844 84.492188 258.472656 C 84.609375 258.359375 84.742188 258.269531 84.894531 258.207031 C 85.046875 258.144531 85.203125 258.113281 85.367188 258.113281 C 85.53125 258.113281 85.6875 258.144531 85.839844 258.207031 C 85.992188 258.269531 86.125 258.359375 86.242188 258.472656 C 86.355469 258.589844 86.445312 258.722656 86.507812 258.875 C 86.570312 259.027344 86.601562 259.183594 86.601562 259.347656 Z M 86.601562 259.347656 " fill-opacity="1" fill-rule="nonzero"/></g><path fill="#ec6c1e" d="M 86.601562 259.347656 L 91.484375 257.046875 L 96.667969 259.070312 " fill-opacity="1" fill-rule="nonzero"/><g clip-path="url(#76cdc50e27)"><path stroke-linecap="butt" transform="matrix(0.737645, 0, 0, 0.737645, 71.221349, 190.507106)" fill="none" stroke-linejoin="miter" d="M 20.850419 93.324732 L 27.469878 90.205643 L 34.497095 92.948747 " stroke="#1a171b" stroke-width="1.498" stroke-opacity="1" stroke-miterlimit="10"/></g><g fill="#16235e" fill-opacity="1"><g transform="translate(146.521073, 246.960098)"><g><path d="M 25.515625 0 L 9.578125 0 L 9.578125 -1.640625 C 10.410156 -1.941406 11.25 -2.207031 12.09375 -2.4375 C 12.945312 -2.664062 13.867188 -2.851562 14.859375 -3 L 14.859375 -36.75 L 6.1875 -36.75 L 3.171875 -28.640625 L 1.75 -28.640625 C 1.644531 -29.390625 1.550781 -30.242188 1.46875 -31.203125 C 1.394531 -32.171875 1.328125 -33.15625 1.265625 -34.15625 C 1.210938 -35.164062 1.164062 -36.148438 1.125 -37.109375 C 1.09375 -38.078125 1.078125 -38.9375 1.078125 -39.6875 L 34.015625 -39.6875 C 34.015625 -38.9375 33.992188 -38.085938 33.953125 -37.140625 C 33.921875 -36.191406 33.875 -35.21875 33.8125 -34.21875 C 33.757812 -33.21875 33.703125 -32.234375 33.640625 -31.265625 C 33.585938 -30.304688 33.503906 -29.429688 33.390625 -28.640625 L 31.921875 -28.640625 L 28.96875 -36.75 L 20.296875 -36.75 L 20.296875 -3 C 21.285156 -2.8125 22.203125 -2.625 23.046875 -2.4375 C 23.898438 -2.25 24.722656 -1.984375 25.515625 -1.640625 Z M 25.515625 0 "/></g></g></g><g fill="#16235e" fill-opacity="1"><g transform="translate(185.868559, 246.960098)"><g><path d="M 28.515625 -39.6875 C 28.484375 -38.175781 28.421875 -36.65625 28.328125 -35.125 C 28.234375 -33.59375 28.085938 -32.050781 27.890625 -30.5 L 26.421875 -30.5 L 24.09375 -36.75 L 11.734375 -36.75 L 11.734375 -21.71875 L 20.984375 -21.71875 L 23.1875 -25.90625 L 24.609375 -25.90625 C 24.835938 -22.164062 24.835938 -18.347656 24.609375 -14.453125 L 23.1875 -14.453125 L 20.984375 -18.765625 L 11.734375 -18.765625 L 11.734375 -2.953125 L 24.78125 -2.953125 L 27.5625 -9.75 L 28.96875 -9.75 C 29.238281 -8.164062 29.429688 -6.5625 29.546875 -4.9375 C 29.660156 -3.3125 29.675781 -1.664062 29.59375 0 L 1.640625 0 L 1.640625 -1.640625 C 2.960938 -2.242188 4.515625 -2.695312 6.296875 -3 L 6.296875 -36.625 C 5.535156 -36.78125 4.757812 -36.976562 3.96875 -37.21875 C 3.175781 -37.46875 2.398438 -37.742188 1.640625 -38.046875 L 1.640625 -39.6875 Z M 28.515625 -39.6875 "/></g></g></g><g fill="#16235e" fill-opacity="1"><g transform="translate(223.118384, 246.960098)"><g><path d="M 8.5 -3.90625 C 8.957031 -3.457031 9.546875 -3.070312 10.265625 -2.75 C 10.984375 -2.425781 12.0625 -2.265625 13.5 -2.265625 C 14.707031 -2.265625 15.835938 -2.425781 16.890625 -2.75 C 17.953125 -3.070312 18.867188 -3.546875 19.640625 -4.171875 C 20.421875 -4.796875 21.035156 -5.550781 21.484375 -6.4375 C 21.941406 -7.320312 22.171875 -8.332031 22.171875 -9.46875 C 22.171875 -10.976562 21.707031 -12.242188 20.78125 -13.265625 C 19.851562 -14.285156 18.695312 -15.191406 17.3125 -15.984375 C 15.9375 -16.785156 14.4375 -17.5625 12.8125 -18.3125 C 11.1875 -19.070312 9.679688 -19.96875 8.296875 -21 C 6.921875 -22.039062 5.769531 -23.289062 4.84375 -24.75 C 3.914062 -26.207031 3.453125 -28.03125 3.453125 -30.21875 C 3.453125 -31.8125 3.734375 -33.226562 4.296875 -34.46875 C 4.867188 -35.71875 5.675781 -36.773438 6.71875 -37.640625 C 7.757812 -38.515625 9 -39.1875 10.4375 -39.65625 C 11.875 -40.132812 13.476562 -40.375 15.25 -40.375 C 17.5625 -40.375 19.671875 -40.191406 21.578125 -39.828125 C 23.484375 -39.472656 24.984375 -39.03125 26.078125 -38.5 C 26.078125 -37.851562 26.03125 -37.101562 25.9375 -36.25 C 25.84375 -35.40625 25.726562 -34.53125 25.59375 -33.625 C 25.46875 -32.71875 25.328125 -31.835938 25.171875 -30.984375 C 25.023438 -30.140625 24.875 -29.394531 24.71875 -28.75 L 23.25 -28.75 L 20.984375 -36.515625 C 20.296875 -36.816406 19.429688 -37.039062 18.390625 -37.1875 C 17.359375 -37.34375 16.253906 -37.421875 15.078125 -37.421875 C 13.148438 -37.421875 11.597656 -36.878906 10.421875 -35.796875 C 9.253906 -34.722656 8.671875 -33.222656 8.671875 -31.296875 C 8.671875 -29.742188 9.132812 -28.4375 10.0625 -27.375 C 10.988281 -26.320312 12.148438 -25.378906 13.546875 -24.546875 C 14.953125 -23.722656 16.457031 -22.921875 18.0625 -22.140625 C 19.664062 -21.367188 21.164062 -20.472656 22.5625 -19.453125 C 23.96875 -18.429688 25.128906 -17.21875 26.046875 -15.8125 C 26.972656 -14.414062 27.4375 -12.679688 27.4375 -10.609375 C 27.4375 -8.898438 27.125 -7.347656 26.5 -5.953125 C 25.882812 -4.554688 24.988281 -3.363281 23.8125 -2.375 C 22.644531 -1.394531 21.207031 -0.640625 19.5 -0.109375 C 17.800781 0.421875 15.875 0.6875 13.71875 0.6875 C 11.34375 0.6875 9.207031 0.40625 7.3125 -0.15625 C 5.425781 -0.726562 4.082031 -1.335938 3.28125 -1.984375 C 3.320312 -2.628906 3.390625 -3.40625 3.484375 -4.3125 C 3.578125 -5.21875 3.691406 -6.148438 3.828125 -7.109375 C 3.960938 -8.078125 4.101562 -9.015625 4.25 -9.921875 C 4.40625 -10.828125 4.554688 -11.601562 4.703125 -12.25 L 6.1875 -12.25 Z M 8.5 -3.90625 "/></g></g></g><g fill="#16235e" fill-opacity="1"><g transform="translate(257.760268, 246.960098)"><g><path d="M 25.515625 0 L 9.578125 0 L 9.578125 -1.640625 C 10.410156 -1.941406 11.25 -2.207031 12.09375 -2.4375 C 12.945312 -2.664062 13.867188 -2.851562 14.859375 -3 L 14.859375 -36.75 L 6.1875 -36.75 L 3.171875 -28.640625 L 1.75 -28.640625 C 1.644531 -29.390625 1.550781 -30.242188 1.46875 -31.203125 C 1.394531 -32.171875 1.328125 -33.15625 1.265625 -34.15625 C 1.210938 -35.164062 1.164062 -36.148438 1.125 -37.109375 C 1.09375 -38.078125 1.078125 -38.9375 1.078125 -39.6875 L 34.015625 -39.6875 C 34.015625 -38.9375 33.992188 -38.085938 33.953125 -37.140625 C 33.921875 -36.191406 33.875 -35.21875 33.8125 -34.21875 C 33.757812 -33.21875 33.703125 -32.234375 33.640625 -31.265625 C 33.585938 -30.304688 33.503906 -29.429688 33.390625 -28.640625 L 31.921875 -28.640625 L 28.96875 -36.75 L 20.296875 -36.75 L 20.296875 -3 C 21.285156 -2.8125 22.203125 -2.625 23.046875 -2.4375 C 23.898438 -2.25 24.722656 -1.984375 25.515625 -1.640625 Z M 25.515625 0 "/></g></g></g><g fill="#16235e" fill-opacity="1"><g transform="translate(82.122576, 186.334246)"><g><path d="M 8.5 -3.90625 C 8.957031 -3.457031 9.546875 -3.070312 10.265625 -2.75 C 10.984375 -2.425781 12.0625 -2.265625 13.5 -2.265625 C 14.707031 -2.265625 15.835938 -2.425781 16.890625 -2.75 C 17.953125 -3.070312 18.867188 -3.546875 19.640625 -4.171875 C 20.421875 -4.796875 21.035156 -5.550781 21.484375 -6.4375 C 21.941406 -7.320312 22.171875 -8.332031 22.171875 -9.46875 C 22.171875 -10.976562 21.707031 -12.242188 20.78125 -13.265625 C 19.851562 -14.285156 18.695312 -15.191406 17.3125 -15.984375 C 15.9375 -16.785156 14.4375 -17.5625 12.8125 -18.3125 C 11.1875 -19.070312 9.679688 -19.96875 8.296875 -21 C 6.921875 -22.039062 5.769531 -23.289062 4.84375 -24.75 C 3.914062 -26.207031 3.453125 -28.03125 3.453125 -30.21875 C 3.453125 -31.8125 3.734375 -33.226562 4.296875 -34.46875 C 4.867188 -35.71875 5.675781 -36.773438 6.71875 -37.640625 C 7.757812 -38.515625 9 -39.1875 10.4375 -39.65625 C 11.875 -40.132812 13.476562 -40.375 15.25 -40.375 C 17.5625 -40.375 19.671875 -40.191406 21.578125 -39.828125 C 23.484375 -39.472656 24.984375 -39.03125 26.078125 -38.5 C 26.078125 -37.851562 26.03125 -37.101562 25.9375 -36.25 C 25.84375 -35.40625 25.726562 -34.53125 25.59375 -33.625 C 25.46875 -32.71875 25.328125 -31.835938 25.171875 -30.984375 C 25.023438 -30.140625 24.875 -29.394531 24.71875 -28.75 L 23.25 -28.75 L 20.984375 -36.515625 C 20.296875 -36.816406 19.429688 -37.039062 18.390625 -37.1875 C 17.359375 -37.34375 16.253906 -37.421875 15.078125 -37.421875 C 13.148438 -37.421875 11.597656 -36.878906 10.421875 -35.796875 C 9.253906 -34.722656 8.671875 -33.222656 8.671875 -31.296875 C 8.671875 -29.742188 9.132812 -28.4375 10.0625 -27.375 C 10.988281 -26.320312 12.148438 -25.378906 13.546875 -24.546875 C 14.953125 -23.722656 16.457031 -22.921875 18.0625 -22.140625 C 19.664062 -21.367188 21.164062 -20.472656 22.5625 -19.453125 C 23.96875 -18.429688 25.128906 -17.21875 26.046875 -15.8125 C 26.972656 -14.414062 27.4375 -12.679688 27.4375 -10.609375 C 27.4375 -8.898438 27.125 -7.347656 26.5 -5.953125 C 25.882812 -4.554688 24.988281 -3.363281 23.8125 -2.375 C 22.644531 -1.394531 21.207031 -0.640625 19.5 -0.109375 C 17.800781 0.421875 15.875 0.6875 13.71875 0.6875 C 11.34375 0.6875 9.207031 0.40625 7.3125 -0.15625 C 5.425781 -0.726562 4.082031 -1.335938 3.28125 -1.984375 C 3.320312 -2.628906 3.390625 -3.40625 3.484375 -4.3125 C 3.578125 -5.21875 3.691406 -6.148438 3.828125 -7.109375 C 3.960938 -8.078125 4.101562 -9.015625 4.25 -9.921875 C 4.40625 -10.828125 4.554688 -11.601562 4.703125 -12.25 L 6.1875 -12.25 Z M 8.5 -3.90625 "/></g></g></g><g fill="#16235e" fill-opacity="1"><g transform="translate(116.764454, 186.334246)"><g><path d="M 21.65625 -39.6875 L 34.1875 -39.6875 L 34.1875 -38.046875 C 33.4375 -37.703125 32.703125 -37.414062 31.984375 -37.1875 C 31.265625 -36.96875 30.5625 -36.78125 29.875 -36.625 L 18.484375 -21.546875 C 19.429688 -20.296875 20.519531 -18.894531 21.75 -17.34375 C 22.976562 -15.800781 24.257812 -14.207031 25.59375 -12.5625 C 26.9375 -10.914062 28.316406 -9.25 29.734375 -7.5625 C 31.148438 -5.882812 32.539062 -4.289062 33.90625 -2.78125 L 36.625 -1.421875 L 36.625 0 L 29.546875 0 L 27.609375 -1.359375 C 25.378906 -3.960938 23.160156 -6.773438 20.953125 -9.796875 C 18.742188 -12.828125 16.597656 -15.894531 14.515625 -19 L 11.734375 -19 L 11.734375 -3 C 13.472656 -2.695312 14.890625 -2.242188 15.984375 -1.640625 L 15.984375 0 L 1.640625 0 L 1.640625 -1.640625 C 3.148438 -2.242188 4.703125 -2.695312 6.296875 -3 L 6.296875 -36.625 C 4.597656 -36.851562 3.046875 -37.328125 1.640625 -38.046875 L 1.640625 -39.6875 L 15.984375 -39.6875 L 15.984375 -38.046875 C 15.378906 -37.785156 14.71875 -37.53125 14 -37.28125 C 13.28125 -37.03125 12.523438 -36.8125 11.734375 -36.625 L 11.734375 -20.921875 L 15.140625 -21.71875 L 25.75 -36.625 C 24.988281 -36.8125 24.265625 -37.019531 23.578125 -37.25 C 22.898438 -37.476562 22.257812 -37.742188 21.65625 -38.046875 Z M 21.65625 -39.6875 "/></g></g></g><g fill="#16235e" fill-opacity="1"><g transform="translate(157.6427, 186.334246)"><g><path d="M 17.234375 0 L 2.71875 0 L 2.71875 -1.640625 C 4.195312 -2.328125 5.710938 -2.78125 7.265625 -3 L 7.265625 -36.625 C 6.503906 -36.78125 5.742188 -36.976562 4.984375 -37.21875 C 4.234375 -37.46875 3.476562 -37.742188 2.71875 -38.046875 L 2.71875 -39.6875 L 17.234375 -39.6875 L 17.234375 -38.046875 C 16.554688 -37.742188 15.816406 -37.46875 15.015625 -37.21875 C 14.222656 -36.976562 13.453125 -36.78125 12.703125 -36.625 L 12.703125 -3 C 13.492188 -2.851562 14.285156 -2.664062 15.078125 -2.4375 C 15.878906 -2.207031 16.597656 -1.941406 17.234375 -1.640625 Z M 17.234375 0 "/></g></g></g><g fill="#16235e" fill-opacity="1"><g transform="translate(181.85289, 186.334246)"><g><path d="M 1.640625 -39.6875 L 17.1875 -39.6875 L 17.1875 -38.046875 C 16.269531 -37.703125 15.359375 -37.40625 14.453125 -37.15625 C 13.546875 -36.914062 12.640625 -36.738281 11.734375 -36.625 L 11.734375 -2.953125 L 24.78125 -2.953125 L 28.125 -12.078125 L 29.59375 -12.078125 C 29.707031 -11.285156 29.8125 -10.367188 29.90625 -9.328125 C 30 -8.285156 30.070312 -7.207031 30.125 -6.09375 C 30.1875 -4.976562 30.21875 -3.890625 30.21875 -2.828125 C 30.21875 -1.773438 30.203125 -0.832031 30.171875 0 L 1.640625 0 L 1.640625 -1.640625 C 2.546875 -2.054688 3.375 -2.359375 4.125 -2.546875 C 4.882812 -2.734375 5.609375 -2.882812 6.296875 -3 L 6.296875 -36.625 C 5.421875 -36.78125 4.585938 -36.976562 3.796875 -37.21875 C 3.003906 -37.46875 2.285156 -37.742188 1.640625 -38.046875 Z M 1.640625 -39.6875 "/></g></g></g><g fill="#16235e" fill-opacity="1"><g transform="translate(217.231805, 186.334246)"><g><path d="M 1.640625 -39.6875 L 17.1875 -39.6875 L 17.1875 -38.046875 C 16.269531 -37.703125 15.359375 -37.40625 14.453125 -37.15625 C 13.546875 -36.914062 12.640625 -36.738281 11.734375 -36.625 L 11.734375 -2.953125 L 24.78125 -2.953125 L 28.125 -12.078125 L 29.59375 -12.078125 C 29.707031 -11.285156 29.8125 -10.367188 29.90625 -9.328125 C 30 -8.285156 30.070312 -7.207031 30.125 -6.09375 C 30.1875 -4.976562 30.21875 -3.890625 30.21875 -2.828125 C 30.21875 -1.773438 30.203125 -0.832031 30.171875 0 L 1.640625 0 L 1.640625 -1.640625 C 2.546875 -2.054688 3.375 -2.359375 4.125 -2.546875 C 4.882812 -2.734375 5.609375 -2.882812 6.296875 -3 L 6.296875 -36.625 C 5.421875 -36.78125 4.585938 -36.976562 3.796875 -37.21875 C 3.003906 -37.46875 2.285156 -37.742188 1.640625 -38.046875 Z M 1.640625 -39.6875 "/></g></g></g><g fill="#16235e" fill-opacity="1"><g transform="translate(83.317998, 133.239155)"><g><path d="M 17.578125 0 L 12.375 0 L 12.375 -0.609375 C 12.644531 -0.722656 12.921875 -0.816406 13.203125 -0.890625 C 13.484375 -0.972656 13.769531 -1.046875 14.0625 -1.109375 L 14.0625 -10.5625 L 14.15625 -13.015625 L 13.984375 -13.015625 L 13.296875 -10.765625 L 8.984375 0 L 8.4375 0 L 4.34375 -10.765625 L 3.59375 -13.234375 L 3.40625 -13.234375 L 3.421875 -10.5625 L 3.421875 -1.109375 C 3.691406 -1.054688 3.957031 -0.988281 4.21875 -0.90625 C 4.488281 -0.820312 4.753906 -0.722656 5.015625 -0.609375 L 5.015625 0 L 0.625 0 L 0.625 -0.609375 C 0.894531 -0.722656 1.171875 -0.820312 1.453125 -0.90625 C 1.742188 -1 2.035156 -1.078125 2.328125 -1.140625 L 2.328125 -13.5625 C 2.035156 -13.625 1.742188 -13.695312 1.453125 -13.78125 C 1.171875 -13.875 0.890625 -13.976562 0.609375 -14.09375 L 0.609375 -14.703125 L 4.90625 -14.703125 L 8.5625 -5.109375 L 9.28125 -2.9375 L 9.296875 -2.9375 L 10.015625 -5.140625 L 13.796875 -14.703125 L 17.59375 -14.703125 L 17.59375 -14.09375 C 17.34375 -13.976562 17.082031 -13.875 16.8125 -13.78125 C 16.550781 -13.695312 16.28125 -13.625 16 -13.5625 L 16 -1.09375 C 16.289062 -1.039062 16.566406 -0.972656 16.828125 -0.890625 C 17.085938 -0.816406 17.335938 -0.722656 17.578125 -0.609375 Z M 17.578125 0 "/></g></g></g><g fill="#16235e" fill-opacity="1"><g transform="translate(103.099375, 133.239155)"><g><path d="M 4.34375 -1.109375 C 4.71875 -1.066406 5.070312 -1 5.40625 -0.90625 C 5.75 -0.820312 6.066406 -0.722656 6.359375 -0.609375 L 6.359375 0 L 0.609375 0 L 0.609375 -0.609375 C 0.890625 -0.742188 1.175781 -0.847656 1.46875 -0.921875 C 1.757812 -0.992188 2.046875 -1.054688 2.328125 -1.109375 L 2.328125 -13.5625 C 2.003906 -13.625 1.703125 -13.695312 1.421875 -13.78125 C 1.148438 -13.875 0.878906 -13.976562 0.609375 -14.09375 L 0.609375 -14.703125 L 2.5 -14.703125 C 3.0625 -14.703125 3.671875 -14.726562 4.328125 -14.78125 C 4.984375 -14.84375 5.613281 -14.875 6.21875 -14.875 C 6.90625 -14.875 7.578125 -14.796875 8.234375 -14.640625 C 8.890625 -14.492188 9.472656 -14.242188 9.984375 -13.890625 C 10.492188 -13.546875 10.90625 -13.082031 11.21875 -12.5 C 11.539062 -11.925781 11.703125 -11.203125 11.703125 -10.328125 C 11.703125 -9.503906 11.539062 -8.796875 11.21875 -8.203125 C 10.894531 -7.617188 10.460938 -7.132812 9.921875 -6.75 C 9.378906 -6.375 8.765625 -6.097656 8.078125 -5.921875 C 7.398438 -5.753906 6.695312 -5.671875 5.96875 -5.671875 C 5.894531 -5.671875 5.785156 -5.671875 5.640625 -5.671875 C 5.492188 -5.671875 5.332031 -5.671875 5.15625 -5.671875 C 4.988281 -5.679688 4.828125 -5.691406 4.671875 -5.703125 C 4.523438 -5.722656 4.414062 -5.738281 4.34375 -5.75 Z M 5.78125 -13.78125 C 5.4375 -13.78125 5.160156 -13.769531 4.953125 -13.75 C 4.742188 -13.738281 4.539062 -13.710938 4.34375 -13.671875 L 4.34375 -6.859375 C 4.414062 -6.835938 4.515625 -6.820312 4.640625 -6.8125 C 4.773438 -6.800781 4.914062 -6.789062 5.0625 -6.78125 C 5.21875 -6.769531 5.363281 -6.765625 5.5 -6.765625 C 5.644531 -6.765625 5.757812 -6.765625 5.84375 -6.765625 C 6.332031 -6.765625 6.789062 -6.828125 7.21875 -6.953125 C 7.65625 -7.085938 8.035156 -7.300781 8.359375 -7.59375 C 8.691406 -7.894531 8.957031 -8.269531 9.15625 -8.71875 C 9.351562 -9.164062 9.453125 -9.703125 9.453125 -10.328125 C 9.453125 -11.472656 9.125 -12.332031 8.46875 -12.90625 C 7.820312 -13.488281 6.925781 -13.78125 5.78125 -13.78125 Z M 5.78125 -13.78125 "/></g></g></g><g fill="#16235e" fill-opacity="1"><g transform="translate(117.190107, 133.239155)"><g><path d="M 3.15625 -1.453125 C 3.320312 -1.285156 3.535156 -1.140625 3.796875 -1.015625 C 4.066406 -0.898438 4.46875 -0.84375 5 -0.84375 C 5.445312 -0.84375 5.863281 -0.898438 6.25 -1.015625 C 6.644531 -1.140625 6.984375 -1.316406 7.265625 -1.546875 C 7.554688 -1.773438 7.785156 -2.050781 7.953125 -2.375 C 8.128906 -2.707031 8.21875 -3.082031 8.21875 -3.5 C 8.21875 -4.0625 8.046875 -4.53125 7.703125 -4.90625 C 7.359375 -5.289062 6.929688 -5.628906 6.421875 -5.921875 C 5.910156 -6.210938 5.351562 -6.5 4.75 -6.78125 C 4.144531 -7.0625 3.585938 -7.394531 3.078125 -7.78125 C 2.566406 -8.164062 2.140625 -8.625 1.796875 -9.15625 C 1.453125 -9.695312 1.28125 -10.375 1.28125 -11.1875 C 1.28125 -11.78125 1.382812 -12.304688 1.59375 -12.765625 C 1.800781 -13.234375 2.097656 -13.625 2.484375 -13.9375 C 2.867188 -14.257812 3.328125 -14.507812 3.859375 -14.6875 C 4.390625 -14.863281 4.988281 -14.953125 5.65625 -14.953125 C 6.507812 -14.953125 7.285156 -14.882812 7.984375 -14.75 C 8.691406 -14.613281 9.25 -14.453125 9.65625 -14.265625 C 9.65625 -14.023438 9.640625 -13.742188 9.609375 -13.421875 C 9.578125 -13.109375 9.535156 -12.785156 9.484375 -12.453125 C 9.429688 -12.117188 9.375 -11.789062 9.3125 -11.46875 C 9.257812 -11.15625 9.207031 -10.878906 9.15625 -10.640625 L 8.609375 -10.640625 L 7.765625 -13.53125 C 7.515625 -13.632812 7.195312 -13.710938 6.8125 -13.765625 C 6.425781 -13.828125 6.019531 -13.859375 5.59375 -13.859375 C 4.875 -13.859375 4.296875 -13.65625 3.859375 -13.25 C 3.429688 -12.851562 3.21875 -12.300781 3.21875 -11.59375 C 3.21875 -11.019531 3.382812 -10.535156 3.71875 -10.140625 C 4.0625 -9.753906 4.492188 -9.40625 5.015625 -9.09375 C 5.535156 -8.78125 6.09375 -8.476562 6.6875 -8.1875 C 7.28125 -7.90625 7.835938 -7.578125 8.359375 -7.203125 C 8.878906 -6.828125 9.304688 -6.378906 9.640625 -5.859375 C 9.984375 -5.335938 10.15625 -4.691406 10.15625 -3.921875 C 10.15625 -3.296875 10.039062 -2.722656 9.8125 -2.203125 C 9.582031 -1.679688 9.25 -1.238281 8.8125 -0.875 C 8.382812 -0.519531 7.851562 -0.242188 7.21875 -0.046875 C 6.59375 0.148438 5.878906 0.25 5.078125 0.25 C 4.203125 0.25 3.410156 0.144531 2.703125 -0.0625 C 2.003906 -0.269531 1.507812 -0.492188 1.21875 -0.734375 C 1.226562 -0.972656 1.25 -1.257812 1.28125 -1.59375 C 1.320312 -1.925781 1.363281 -2.269531 1.40625 -2.625 C 1.457031 -2.988281 1.507812 -3.335938 1.5625 -3.671875 C 1.625 -4.003906 1.6875 -4.289062 1.75 -4.53125 L 2.28125 -4.53125 Z M 3.15625 -1.453125 "/></g></g></g><g fill="#16235e" fill-opacity="1"><g transform="translate(130.020921, 133.239155)"><g><path d="M 11.484375 -3.828125 L 12.03125 -3.828125 C 12.101562 -3.429688 12.164062 -2.9375 12.21875 -2.34375 C 12.28125 -1.75 12.296875 -1.171875 12.265625 -0.609375 C 12.054688 -0.441406 11.800781 -0.304688 11.5 -0.203125 C 11.207031 -0.0976562 10.894531 -0.0078125 10.5625 0.0625 C 10.238281 0.132812 9.90625 0.179688 9.5625 0.203125 C 9.21875 0.234375 8.894531 0.25 8.59375 0.25 C 7.414062 0.25 6.363281 0.0976562 5.4375 -0.203125 C 4.507812 -0.503906 3.726562 -0.960938 3.09375 -1.578125 C 2.457031 -2.191406 1.96875 -2.976562 1.625 -3.9375 C 1.28125 -4.894531 1.109375 -6.03125 1.109375 -7.34375 C 1.109375 -8.71875 1.296875 -9.882812 1.671875 -10.84375 C 2.054688 -11.800781 2.566406 -12.582031 3.203125 -13.1875 C 3.847656 -13.800781 4.597656 -14.25 5.453125 -14.53125 C 6.304688 -14.8125 7.203125 -14.953125 8.140625 -14.953125 C 9.066406 -14.953125 9.84375 -14.890625 10.46875 -14.765625 C 11.101562 -14.648438 11.660156 -14.472656 12.140625 -14.234375 C 12.140625 -14.015625 12.128906 -13.753906 12.109375 -13.453125 C 12.097656 -13.148438 12.078125 -12.828125 12.046875 -12.484375 C 12.023438 -12.148438 11.992188 -11.820312 11.953125 -11.5 C 11.910156 -11.1875 11.867188 -10.894531 11.828125 -10.625 L 11.28125 -10.625 L 10.1875 -13.65625 C 10.03125 -13.738281 9.773438 -13.789062 9.421875 -13.8125 C 9.066406 -13.84375 8.710938 -13.859375 8.359375 -13.859375 C 7.660156 -13.859375 7 -13.726562 6.375 -13.46875 C 5.75 -13.207031 5.203125 -12.804688 4.734375 -12.265625 C 4.265625 -11.734375 3.890625 -11.054688 3.609375 -10.234375 C 3.328125 -9.421875 3.1875 -8.457031 3.1875 -7.34375 C 3.1875 -6.351562 3.3125 -5.453125 3.5625 -4.640625 C 3.820312 -3.835938 4.1875 -3.15625 4.65625 -2.59375 C 5.132812 -2.03125 5.71875 -1.597656 6.40625 -1.296875 C 7.09375 -0.992188 7.867188 -0.84375 8.734375 -0.84375 C 9.191406 -0.84375 9.578125 -0.875 9.890625 -0.9375 C 10.203125 -1.007812 10.40625 -1.101562 10.5 -1.21875 Z M 11.484375 -3.828125 "/></g></g></g></svg>